# xmcd CD database file
#
# Track frame offsets:
#	187
#	14140
#	26487
#	42960
#	57490
#	68757
#	82635
#	96810
#
# Disc length: 1515 seconds
#
# Revision: 2
# Processed by: cddbd v1.4PL0 Copyright (c) Steve Scherf et al.
# Submitted via: CDex 1.50
#
DISCID=5e05e908
DTITLE=Clint Black - Clint Black
DYEAR=1993
DGENRE=Country
TTITLE0=A Better Man
TTITLE1=The Gulf Of Mexico
TTITLE2=Winding Down
TTITLE3=Live And Learn
TTITLE4=Muddy Water
TTITLE5=The Old Man
TTITLE6=This Nightlife
TTITLE7=You're Gonna Leave Me Again
EXTD=YEAR: 1993
EXTT0=
EXTT1=
EXTT2=
EXTT3=
EXTT4=
EXTT5=
EXTT6=
EXTT7=
PLAYORDER=
